<svg width="161" height="41" viewBox="0 0 161 41" fill="none" xmlns="http://www.w3.org/2000/svg">
<path fill-rule="evenodd" clip-rule="evenodd" d="M22.2511 6.56625C13.6338 8.10043 1.1992 13.5108 3.23436 24.0643C3.92353 27.6381 9.79794 29.4898 12.4799 26.881C14.774 24.6495 13.0432 20.1062 9.15809 20.3387C8.59406 20.3724 8.10875 19.9543 8.07411 19.4049C8.03947 18.8554 8.46863 18.3827 9.03265 18.3489C14.8579 18.0004 18.5353 26.7967 14.9491 30.2851C11.1221 34.0077 2.66291 31.8984 1.22316 24.4324C-1.0446 12.6727 12.0658 3.36288 21.8831 1.61505C38.0076 -1.25567 58.5638 4.39257 71.7399 14.5385C79.2748 4.48815 87.9719 1.9963 102.257 8.35496C107.924 11.9637 113.612 15.778 118.555 18.2572C120.005 18.9841 121.41 19.7051 122.778 20.407C126.102 22.1124 129.205 23.7046 132.184 24.9931C136.377 26.807 140.184 27.9528 143.794 27.9378C147.361 27.9231 150.816 26.7743 154.327 23.8394C158.437 20.404 159.321 16.9337 158.741 14.2427C157.872 10.2093 153.688 7.28002 149.688 9.13242C147.271 10.2515 144.493 12.8795 144.704 15.7203C144.783 16.7862 144.759 18.4425 146.977 18.7431C149.363 18.7431 149.639 19.9555 149.363 20.4359C148.505 21.931 146.977 21.5165 145.782 20.9343C142.713 19.4392 141.776 16.6939 141.64 14.8673C141.367 11.1874 145.613 6.81842 148.809 5.3385C153.992 2.9385 159.605 8.54719 160.744 13.8334C162.603 22.4662 152.336 31.8894 143.802 31.9248C134.184 31.9646 125.871 24.1683 117.618 20.0295C112.708 17.5669 107.426 15.1084 101.615 13.238C87.1099 8.56832 78.2705 10.933 73.3064 15.8298C76.5549 18.7021 78.868 22.0877 79.721 25.9537C81.1331 32.3539 77.4958 40.2482 73.3064 40.869C67.9889 40.869 64.7491 34.9577 65.9633 26.724C66.5291 22.8876 67.9303 19.1325 70.3962 16.0451C57.6709 6.30968 37.7767 3.80214 22.2511 6.56625ZM71.9611 17.3325C69.7884 20.0801 68.5116 23.4631 67.9889 27.0075C67.4726 30.5084 68.1052 32.7248 69.0839 33.9791C70.0397 35.2041 71.4333 35.6548 72.8652 35.4426C75.739 35.0167 78.9177 31.7996 77.7203 26.3726C76.9817 23.025 74.9626 19.9942 71.9611 17.3325Z" fill="#FFBAA5"/>
</svg>
